<svg id="Layer_1" data-name="Layer 1" xmlns="http://www.w3.org/2000/svg" viewBox="0 0 52.98 52.98"><defs><style>.cls-1{fill:#fff;}.cls-2{fill:none;}</style></defs><title>change</title><rect class="cls-1" width="22.7" height="22.7"/><path class="cls-1" d="M16.56,33.44H20.9L14,26.67,7.13,33.5h4.34a15.33,15.33,0,0,0,15.26,14v-5a10.36,10.36,0,0,1-10.17-9.06" transform="translate(0 0)"/><path class="cls-1" d="M37.72,18.86H33.44l6.89,6.89,6.89-6.89H42.87a15.35,15.35,0,0,0-15.32-14V9.93a10.25,10.25,0,0,1,10.17,8.93" transform="translate(0 0)"/><path class="cls-1" d="M41.62,30.27A11.35,11.35,0,1,1,30.27,41.62,11.35,11.35,0,0,1,41.62,30.27" transform="translate(0 0)"/><rect class="cls-2" width="52.98" height="52.98"/></svg>