<svg id="Layer_1" data-name="Layer 1" xmlns="http://www.w3.org/2000/svg" xmlns:xlink="http://www.w3.org/1999/xlink" viewBox="0 0 44.98 46.2"><defs><style>.cls-1{fill:none;}.cls-2{clip-path:url(#clip-path);}.cls-3{fill:#fff;}</style><clipPath id="clip-path" transform="translate(0 0)"><rect class="cls-1" width="44.98" height="46.2"/></clipPath></defs><title>human</title><g class="cls-2"><path class="cls-3" d="M9.54,0a5.2,5.2,0,1,1-5.2,5.2A5.2,5.2,0,0,1,9.54,0" transform="translate(0 0)"/><path class="cls-3" d="M22.35,0a5.2,5.2,0,1,1-5.2,5.2A5.2,5.2,0,0,1,22.35,0" transform="translate(0 0)"/><path class="cls-3" d="M35.1,0a5.2,5.2,0,1,1-5.2,5.2A5.2,5.2,0,0,1,35.1,0" transform="translate(0 0)"/><path class="cls-3" d="M29.81,12.28H15a2.29,2.29,0,0,0-2.3,2.29V27.69A2.29,2.29,0,0,0,15,30h.71V46.2H28.83V30h1a2.29,2.29,0,0,0,2.29-2.29V14.58a2.29,2.29,0,0,0-2.29-2.29" transform="translate(0 0)"/><path class="cls-3" d="M9.44,27.69V14.58A5.49,5.49,0,0,1,10,12.28H2.29A2.29,2.29,0,0,0,0,14.58V27.69A2.29,2.29,0,0,0,2.29,30H3V46.2h9.44V32.61a5.54,5.54,0,0,1-3-4.92" transform="translate(0 0)"/><path class="cls-3" d="M42.69,12.28H34.82a5.5,5.5,0,0,1,.51,2.29V27.69a5.54,5.54,0,0,1-3.27,5V46.2h9.65V30h1A2.29,2.29,0,0,0,45,27.69V14.58a2.29,2.29,0,0,0-2.29-2.29" transform="translate(0 0)"/></g></svg>