<?xml version="1.0" encoding="utf-8"?>
<!-- Generator: Adobe Illustrator 19.1.1, SVG Export Plug-In . SVG Version: 6.00 Build 0)  -->
<svg version="1.1" id="Layer_1" xmlns="http://www.w3.org/2000/svg" xmlns:xlink="http://www.w3.org/1999/xlink" x="0px" y="0px"
	 viewBox="0 0 1000 758.2" style="enable-background:new 0 0 1000 758.2;" xml:space="preserve">
<style type="text/css">
	.st0{fill:#FFFFFF;}
	.st1{fill:#EA5329;}
</style>
<g>
	<g>
		<path class="st0" d="M0,599.3v-86.6l63.7-0.1v16.2H17.3v18.5h34.7v16.1H17.3v19.7h46.2v16.2H0z"/>
		<path class="st0" d="M106.2,599.3l34.7-86.7h17.3l34.6,86.6l-18.4,0.1l-5.2-13.3h-39.3l-5.2,13.3H106.2z M150,535.7l-13.2,32.9h26
			L150,535.7z"/>
		<path class="st0" d="M243.1,586.9c-8.3-8.3-12.5-18.6-12.5-31.1c0-12.2,4.2-22.4,12.5-30.7c8.3-8.3,18.5-12.5,30.8-12.5
			c12.4,0,23,3.9,31.8,11.6l-11.5,12.7c-5.9-4.6-12.7-6.9-20.3-6.9c-7.8,0-14.1,2.5-18.8,7.3c-4.8,4.8-7.1,11-7.1,18.5
			c0,8,2.4,14.4,7.2,19.2c4.8,4.7,11,7.1,18.8,7.1c6.2,0,11-1.2,14.4-3.7v-14.8l-11.6,0.1v-16.2h28.9v40.5
			c-8.8,7.7-19.4,11.6-31.8,11.6C261.7,599.3,251.4,595.1,243.1,586.9z"/>
		<path class="st0" d="M370.3,512.6v70.5h46.2v16.2H353v-86.7H370.3z"/>
		<path class="st0" d="M460.2,599.3v-86.6l63.7-0.1v16.2h-46.3v18.5h34.7v16.1h-34.7v19.7h46.2v16.2H460.2z"/>
		<path class="st0" d="M641,599.3v-86.7h17.3v34.7h40.4v-34.7h17.3v86.7l-17.3,0.1v-35.8h-40.4v35.8H641z"/>
		<path class="st0" d="M764.4,512.6h17.3v86.8h-17.3V512.6z"/>
		<path class="st0" d="M846.2,512.6v70.5h46.2v16.2h-63.6v-86.7H846.2z"/>
		<path class="st0" d="M953.8,512.6v70.5h46.2v16.2h-63.6v-86.7H953.8z"/>
	</g>
	<g>
		<path class="st0" d="M192.3,696.7c-2.2,1.5-3.7,2.3-4.4,2.3c-2.7,0-5.1-1.7-7.2-5.1c-1.5,1.4-2.9,2.8-4.5,4.2
			c-2.6,2.5-4.9,3.8-6.7,3.8c-1.8,0-3.1-1.3-3.9-4c-0.4-1.5-0.6-3.2-0.6-4.8c0-2.8,0.4-6.6,1.3-11.4c0.7-3.2,1.4-6.3,2-9.5
			c0.7-1.5,1.8-2.3,3.3-2.3c1.3,0,2,1.3,2.3,4c0,0.6-0.7,2.8-1.9,6.7c-1.2,3.8-1.8,6.6-1.8,8.5c0,0,0,0.6-0.1,1.6
			c-0.1,0.9-0.1,1.6,0,2.2c0.2,0.8,0.4,1.5,0.7,2.1c0.2,0.1,0.4,0.1,0.6,0.1c1.7,0,4-2.5,6.9-7.5c3-5,5-7.5,5.9-7.5
			c1.2,0,1.9,0.9,1.9,2.8c0,1.1-0.3,4.3-0.3,5.6c0,3,1.2,4.5,3.7,4.5c0.2,0,0.9-0.4,2.1-1.1c1.4-0.7,2.4-1.2,2.8-1.5
			c0.9,0.3,1.4,1,1.4,2C195.8,693.5,194.6,695,192.3,696.7z"/>
		<path class="st0" d="M222.8,690.5c2.4-1.5,4.1-2.7,5.4-3.3c0.5,0.6,0.7,1,0.7,1.4c0,1.5-1.9,3.7-5.9,6.9c-3.6,2.9-5.9,4.4-6.7,4.4
			c-1.5,0-2.6-2-3-6c-0.3-2.9-0.4-5.9-0.6-8.8c-1.1,1.3-2.4,3-4.3,5.2c-1.5,1.7-3.2,4.5-5,8.2c-1.4,2.8-2.5,4.1-3.6,4.1
			c-0.8,0-1.5-0.6-2-1.6c-0.4-0.8-0.6-1.5-0.6-2c0-2.3,0.6-7.4,1.9-15.4c1.5-9.7,3-14.6,4.5-14.6c1.9,0,3.4,1.5,3.4,2.8
			c0,1.1-0.9,5.5-2.8,13.4l-0.3,2.9c0.5-1.1,2-3.2,4.3-6.1c2.9-3.7,5.1-5.4,6.6-5.1c2.2,0.1,3.4,1.7,3.7,4.7c0.2,3.7,0.4,7.3,0.6,11
			C219.7,692.4,220.9,691.7,222.8,690.5z"/>
		<path class="st0" d="M243.7,698.4c-4.8,2-8.2,3-10.3,2.9c-1.7-0.1-3.5-0.7-5.3-1.9c-2.1-1.5-3.2-3.1-3.2-5
			c-0.1-5.1,2.4-11,7.5-17.5c5-6.4,9.3-9.7,13.1-9.7c2,0,3.9,1.1,3.9,2.8c0,0.3-0.4,1.2-1.2,2.7c-2.8-0.5-6.4,2-10.9,7.3
			c-4.3,5.2-6.4,9.3-6.4,12.4c0,1.1,0.7,1.9,2.1,2.4c0.9,0.4,1.6,0.6,2.4,0.6c0.2,0,1-0.1,2.1-0.2c1.2-0.2,2.1-0.3,2.8-0.6
			c0.7-0.2,2.3-0.9,4.8-1.9c2.5-1.1,3.8-1.6,4.1-1.7c0.9-0.3,1.8,0.3,2.1,0.3c0,0.1,0,0.1,0.1,0.2c0.2,0.2,0.4,0.6,0.4,1
			C251.6,694.1,249,696.2,243.7,698.4z"/>
		<path class="st0" d="M256,685.2c0.7-3.2,1.6-5.7,2.7-7.3c1.4-2.2,2.8-4.3,4.1-6.5c1.5-2.2,3.2-3.3,5-3.5c0.4,0,0.9,0.2,1.5,0.8
			c0.7,0.7,1.1,1.5,1.1,2.3c0,0.2,0,0.6-0.1,0.8c2.5,0.7,4.5,4.6,4.8,7.2c0.2,3.8-0.6,8.1-2.3,12.9c-2.5,6.8-6.4,10-11.7,9.4
			c-2.4-0.9-4.1-2.4-5.2-4.6c-0.7-1.5-1.1-3.1-1.1-4.7C255,690.1,255.4,687.8,256,685.2z M268,676.6c-1.7,0.1-3.4,2.2-5.2,6.3
			c-1.7,3.8-2.4,6.8-2.3,9c0.1,1.4,1.6,3.3,2.9,3.3c1.9-0.1,3.6-2.4,5-7.1c1.1-3.7,1.5-6.4,1.5-8C269.7,677.7,269.1,676.5,268,676.6
			z"/>
		<path class="st0" d="M305.7,690.5c2.4-1.5,4.1-2.7,5.4-3.3c0.5,0.6,0.7,1,0.7,1.4c0,1.5-1.9,3.7-5.8,6.9c-3.7,2.9-5.9,4.4-6.7,4.4
			c-1.5,0-2.6-2-3-6c-0.2-2.9-0.4-5.9-0.6-8.8c-1.1,1.3-2.4,3-4.3,5.2c-1.5,1.7-3.2,4.5-5,8.2c-1.4,2.8-2.5,4.1-3.6,4.1
			c-0.8,0-1.5-0.6-2-1.6c-0.4-0.8-0.6-1.5-0.6-2c0-2.3,0.7-7.4,1.9-15.4c1.5-9.7,3-14.6,4.5-14.6c1.9,0,3.4,1.5,3.4,2.8
			c0,1.1-0.9,5.5-2.8,13.4l-0.3,2.9c0.5-1.1,2-3.2,4.3-6.1c2.9-3.7,5.1-5.4,6.6-5.1c2.2,0.1,3.4,1.7,3.7,4.7c0.2,3.7,0.4,7.3,0.6,11
			C302.6,692.4,303.8,691.7,305.7,690.5z"/>
		<path class="st0" d="M334.3,666.9c1.9,0,3.1,2,3.1,3.9c0-0.1-0.8,0.8-2.4,2.7c-1.7,2-2.8,3.7-3.4,5c-2.1,5.8-4.9,12.9-8.4,21.3
			c-0.3,0.9-1.9,2.5-2.8,2.5c-1.5,0-2.8-1.9-3.9-5.6c-0.6-2-1-4.1-1.2-6.3c-0.2-2.3-0.9-5.8-1.9-10.4c-1.1-4.3-1.5-6.4-1.5-6.5
			c0-0.8,0.6-1.6,1.9-2.4c1.1-0.7,1.8-1.1,2.2-1.1c1.9,0,3,1.1,3.4,3.4c0.2,0.7,0.2,2.4,0.2,5.2c0,3,0.1,5.3,0.2,6.7
			c0.3,2.4,0.5,3.7,0.6,4.1l0.8,2.3c0.4-0.8,1.6-3.8,3.6-9.1c1.9-5.1,3-8,3.4-8.5C331.1,669.3,333.1,666.9,334.3,666.9z"/>
		<path class="st0" d="M359.4,697.1c-3.2,2.4-6.7,3.7-10.3,4.1c-6.5,0-10.8-4.6-10.8-10.8c0-0.7,0.3-2.3,0.4-7.1
			c5.4-9.8,10.7-14.6,15.8-14.6c3.7,0,5.4,1.4,5.4,4c0,3.7-1.7,7.2-5,10.6c-3,3.1-6.5,5.1-10.4,6.1c-0.3,2.2,0.3,3.8,2,4.9
			c1.2,0.7,2.7,1.1,4.5,1.1c1.2,0,3.1-0.6,5.6-1.9c2.5-1.2,4.3-2.5,5.3-3.9c1.5-1.4,2.4-1.1,2.5,0.8c-0.5,1.2-1.1,2.4-2,3.6
			L359.4,697.1z M353,674.8c-1.1,0.2-2.4,1.3-3.9,3c-1.2,1.4-2.2,2.8-3,4.4c4.3-1.5,7.2-3.9,8.4-7C354,674.8,353.5,674.7,353,674.8z
			"/>
		<path class="st0" d="M392.7,690.5c2.4-1.5,4.1-2.7,5.4-3.3c0.5,0.6,0.7,1,0.7,1.4c0,1.5-1.9,3.7-5.8,6.9c-3.7,2.9-5.9,4.4-6.7,4.4
			c-1.6,0-2.6-2-3-6c-0.2-2.9-0.4-5.9-0.6-8.8c-1.1,1.3-2.4,3-4.3,5.2c-1.5,1.7-3.3,4.5-5,8.2c-1.4,2.8-2.5,4.1-3.6,4.1
			c-0.8,0-1.5-0.6-2-1.6c-0.4-0.8-0.6-1.5-0.6-2c0-2.3,0.7-7.4,1.9-15.4c1.5-9.7,3-14.6,4.5-14.6c1.9,0,3.4,1.5,3.4,2.8
			c0,1.1-0.9,5.5-2.8,13.4l-0.3,2.9c0.5-1.1,1.9-3.2,4.3-6.1c2.9-3.7,5.1-5.4,6.6-5.1c2.2,0.1,3.4,1.7,3.7,4.7
			c0.2,3.7,0.4,7.3,0.6,11C389.6,692.4,390.8,691.7,392.7,690.5z"/>
		<path class="st0" d="M394.9,676c-0.4-0.8-0.7-1.6-0.7-2.4c0-1.8,1.4-2.7,4.2-2.7c2,0,3.7-0.1,5.2-0.2c0.4-2.5,1.1-6.3,2.2-11.4
			c0.7-3.3,1.4-5.6,1.9-7c1.2-2.8,2.6-4.1,4.2-3.9c0.3,0.1,0.9,0.5,1.8,1.2c0.9,0.7,1.3,1.4,1.3,1.8c0-0.1-0.8,2.3-2.5,7
			c-1.7,4.9-2.8,9-3.2,12l3.5-0.2c2.4,0,4.1,0.1,4.8,0.3c0.4,0.3,0.6,0.6,0.6,1.1c0-0.2-0.2,0.5-0.6,1.9c-4.3,1.7-7.3,2.7-9,2.9
			c-0.4,1.1-0.7,3.3-0.7,6.4c0,3.5,0.3,6.4,0.9,8.9c0.7,3,1.9,4.5,3.2,4.5c1,0,2.1-0.7,3.5-1.9c1.4-1.2,2.1-1.9,2.3-1.9
			c0.4,0,0.9-0.2,1.1-0.2c0.4,0,0.9,0.4,1.3,1.2v1.2c-0.5,1.5-1.9,3-4.1,4.5c-2.2,1.5-4,2.3-5.5,2.3c-5.7,0-8.5-5.8-8.5-17.2
			c0-2.3,0.1-4.7,0.3-7.2c-0.3,0-1.2,0.1-2.8,0.3c-1.5,0.2-2.5,0.2-2.8,0.2C396.2,677.6,395.4,677.1,394.9,676z"/>
		<path class="st0" d="M433.1,704.6c-1.4,0-3.2-2.3-5.5-6.7c-1.1-5-1.6-9.3-1.5-13.3c0.2-6.5,0.2-9.9,0-10.1l0.7-2.2
			c0.4-1,1.3-1.5,2.6-1.5c1.9,0,2.8,1.3,2.8,4c0,0.7-0.1,1.6-0.3,2.7c-0.2,1.1-0.2,1.6-0.2,1.7v8.3c0,5.3,1.1,10.6,3.5,15.8
			C434.9,704.1,434.2,704.6,433.1,704.6z M436.4,660.9c-1.8,1.2-3.2,1.8-4.3,1.8c-1.1,0-1.9-0.5-2.5-1.4c-0.5-0.7-0.7-1.5-0.7-2.3
			c0-1.2,0.5-2.2,1.5-2.8c0.6-0.4,1.6-0.6,3-0.6c1,0,1.9,0.2,2.8,0.5c1.1,0.5,1.7,1.1,1.7,1.9C437.7,659.3,437.3,660.3,436.4,660.9z
			"/>
		<path class="st0" d="M441.1,685.2c0.7-3.2,1.6-5.7,2.7-7.3c1.4-2.2,2.8-4.3,4.1-6.5c1.5-2.2,3.2-3.3,5-3.5c0.4,0,0.9,0.2,1.5,0.8
			c0.7,0.7,1.1,1.5,1.1,2.3c0,0.2,0,0.6-0.1,0.8c2.5,0.7,4.5,4.6,4.8,7.2c0.2,3.8-0.6,8.1-2.3,12.9c-2.5,6.8-6.4,10-11.7,9.4
			c-2.4-0.9-4.1-2.4-5.2-4.6c-0.7-1.5-1.1-3.1-1.1-4.7C440.2,690.1,440.6,687.8,441.1,685.2z M453.2,676.6c-1.7,0.1-3.4,2.2-5.2,6.3
			c-1.7,3.8-2.4,6.8-2.3,9c0.1,1.4,1.6,3.3,2.9,3.3c1.9-0.1,3.6-2.4,4.9-7.1c1.1-3.7,1.6-6.4,1.5-8
			C454.9,677.7,454.2,676.5,453.2,676.6z"/>
		<path class="st0" d="M490.8,690.5c2.4-1.5,4.1-2.7,5.4-3.3c0.5,0.6,0.7,1,0.7,1.4c0,1.5-1.9,3.7-5.9,6.9c-3.6,2.9-5.9,4.4-6.7,4.4
			c-1.5,0-2.6-2-3-6c-0.2-2.9-0.4-5.9-0.6-8.8c-1.1,1.3-2.4,3-4.3,5.2c-1.5,1.7-3.2,4.5-5,8.2c-1.4,2.8-2.5,4.1-3.6,4.1
			c-0.8,0-1.5-0.6-2-1.6c-0.4-0.8-0.6-1.5-0.6-2c0-2.3,0.6-7.4,1.9-15.4c1.5-9.7,3-14.6,4.5-14.6c1.9,0,3.4,1.5,3.4,2.8
			c0,1.1-0.9,5.5-2.8,13.4l-0.3,2.9c0.5-1.1,1.9-3.2,4.3-6.1c2.9-3.7,5.1-5.4,6.6-5.1c2.2,0.1,3.4,1.7,3.7,4.7
			c0.2,3.7,0.4,7.3,0.6,11C487.7,692.4,489,691.7,490.8,690.5z"/>
		<path class="st0" d="M517.9,699.9h-2.2c-1.4,0-2.8-0.6-4.1-1.8c-1.4-1.2-2.2-2.3-2.5-3.3c-1.5,0.9-3.2,1.8-4.7,2.7
			c-2.3,1.2-4.1,1.8-5.4,1.8c-1.6,0-3-0.7-4.1-2.2c-1-1.3-1.5-2.6-1.5-3.9c0-3.7,2.4-8.3,7.2-13.6c4.8-5.4,9-8,12.8-8
			c1,0,1.8,0.7,2.5,2.1c0.6,1.1,0.9,1.9,0.9,2.4c0,0.5-0.2,1.2-0.6,2.3c-0.3,1.1-0.6,1.6-0.8,1.8c0.6,0.5,1.1,1,1.6,1.4
			c0.7,0.6,1.1,1.1,1.1,1.5c0,0.3-0.4,1.7-1.3,4.1c-0.8,2.4-1.2,3.9-1.2,4.8c0,0.6,0.2,1,0.4,1.1c0.8,0.8,1.7,1.2,2.7,1.2
			c1.3,0,3.6-0.5,6.8-1.4c1.1,0,1,0.9,1.2,1.5C524,698,521.1,699.9,517.9,699.9z M510.8,678.6c0-0.3,0-0.6,0.1-0.8
			c-2.8,1.1-5.4,3.3-7.6,6.7c-2,2.8-3.2,5.4-3.7,8c0.1,0.7,0.8,0.9,2.2,0.5c3.2-2.5,5-4.1,5.7-4.7c2.4-2.2,4.1-4.3,5.3-6.3
			C511.4,680.6,510.8,679.4,510.8,678.6z"/>
		<path class="st0" d="M534.3,642.8c0.2-3.2,0.7-5.4,4.2-5.5c1.1,0,2.2,1.8,2.2,2.4c0.1,0.7-1.1,9.2-3.7,25.3
			c-2.4,16.2-3.6,25.9-3.4,29.2c0.1,4.5,0.6,7.4,1.4,8.9c0.1,1.1-0.3,1.8-1,2c-0.1,0.2-0.4,0.3-1.1,0.5c-2.3,0.1-3.6-3.1-4.1-9.6
			c-0.1-1-0.1-2.1-0.1-3.3c0-5,0.7-12.3,2.1-22.3c0.9-5.3,2-13.2,3.3-24C534.3,645.3,534.3,644,534.3,642.8z"/>
		<path class="st0" d="M582.2,698.4c-4.8,2-8.2,3-10.3,2.9c-1.7-0.1-3.5-0.7-5.3-1.9c-2.1-1.5-3.2-3.1-3.3-5
			c-0.1-5.1,2.4-11,7.5-17.5c4.9-6.4,9.3-9.7,13.1-9.7c2,0,3.9,1.1,3.9,2.8c0,0.3-0.4,1.2-1.2,2.7c-2.8-0.5-6.4,2-10.9,7.3
			c-4.3,5.2-6.4,9.3-6.4,12.4c0,1.1,0.7,1.9,2.1,2.4c0.9,0.4,1.6,0.6,2.4,0.6c0.2,0,1-0.1,2.1-0.2c1.2-0.2,2.1-0.3,2.8-0.6
			c0.7-0.2,2.3-0.9,4.8-1.9c2.5-1.1,3.8-1.6,4.1-1.7c0.9-0.3,1.8,0.3,2.1,0.3c0,0.1,0,0.1,0.1,0.2c0.3,0.2,0.4,0.6,0.4,1
			C590.1,694.1,587.5,696.2,582.2,698.4z"/>
		<path class="st0" d="M594.5,685.2c0.7-3.2,1.6-5.7,2.7-7.3c1.4-2.2,2.8-4.3,4.1-6.5c1.5-2.2,3.2-3.3,5-3.5c0.4,0,0.9,0.2,1.5,0.8
			c0.7,0.7,1.1,1.5,1.1,2.3c0,0.2,0,0.6-0.1,0.8c2.5,0.7,4.5,4.6,4.8,7.2c0.2,3.8-0.6,8.1-2.3,12.9c-2.5,6.8-6.4,10-11.7,9.4
			c-2.4-0.9-4.1-2.4-5.2-4.6c-0.7-1.5-1.1-3.1-1.1-4.7C593.5,690.1,593.9,687.8,594.5,685.2z M606.5,676.6c-1.7,0.1-3.4,2.2-5.2,6.3
			c-1.7,3.8-2.4,6.8-2.3,9c0.1,1.4,1.6,3.3,2.9,3.3c1.9-0.1,3.6-2.4,4.9-7.1c1.1-3.7,1.6-6.4,1.5-8
			C608.2,677.7,607.6,676.5,606.5,676.6z"/>
		<path class="st0" d="M644.2,690.5c2.4-1.5,4.1-2.7,5.4-3.3c0.5,0.6,0.7,1,0.7,1.4c0,1.5-2,3.7-5.8,6.9c-3.7,2.9-5.9,4.4-6.7,4.4
			c-1.6,0-2.6-2-3-6c-0.2-2.9-0.4-5.9-0.6-8.8c-1.1,1.3-2.4,3-4.3,5.2c-1.5,1.7-3.2,4.5-5,8.2c-1.4,2.8-2.5,4.1-3.6,4.1
			c-0.8,0-1.5-0.6-2-1.6c-0.4-0.8-0.6-1.5-0.6-2c0-2.3,0.7-7.4,1.9-15.4c1.5-9.7,3-14.6,4.5-14.6c1.9,0,3.4,1.5,3.4,2.8
			c0,1.1-0.9,5.5-2.8,13.4l-0.3,2.9c0.5-1.1,1.9-3.2,4.3-6.1c2.9-3.7,5.1-5.4,6.6-5.1c2.2,0.1,3.4,1.7,3.7,4.7
			c0.2,3.7,0.4,7.3,0.6,11C641.1,692.4,642.3,691.7,644.2,690.5z"/>
		<path class="st0" d="M671.4,675.6c0.2,0-0.5-0.4-2.1-1.2c-1.6-0.8-3.8-1.2-6.7-1.2c-0.8,0-1.6,0.2-2.4,0.7c-1.1,0.5-1.5,1.1-1.4,2
			c0.2,0.9,1,2,2.5,3.6c2.2,2.1,3.6,3.7,4.3,4.6c1.5,2.1,2.4,4.3,2.7,6.7c0.4,4.1-1.1,7.4-4.7,9.9c-3,2.1-6.4,3.2-10.1,3.2h-2
			c-1.4,0-3.4-2.3-3.8-4.3c0.3-1.6,1.2-2.8,2.6-3.8c1.5-1.1,2.2-1.5,2.2-1.5c0.7,0,2.3-0.4,2.9-0.4c0.6,0,1,0.2,1.3,0.4
			c0.6,0.4,0.9,1,1,1.5c0.1,0.7,0.2,1.2,0.4,1.5c2.3-0.3,4.8-2.9,4.8-5.3c0-2.7-1.9-5.7-5.6-9c-3.7-3.3-5.5-6.1-5.5-8.3
			c0-2.7,1.4-4.6,4.1-5.9c2-0.9,4.5-1.4,7.4-1.4c1.8,0,3.8,0.5,6.1,1.5c2.7,1.2,4.1,2.7,4.1,4.4
			C673.4,674.8,672.7,675.6,671.4,675.6z"/>
		<path class="st0" d="M705.7,696.7c-2.2,1.5-3.6,2.3-4.4,2.3c-2.7,0-5.1-1.7-7.2-5.1c-1.5,1.4-2.9,2.8-4.5,4.2
			c-2.6,2.5-4.9,3.8-6.7,3.8c-1.8,0-3.1-1.3-3.9-4c-0.4-1.5-0.7-3.2-0.7-4.8c0-2.8,0.4-6.6,1.3-11.4c0.7-3.2,1.4-6.3,2-9.5
			c0.7-1.5,1.8-2.3,3.3-2.3c1.3,0,2,1.3,2.3,4c0,0.6-0.6,2.8-1.9,6.7c-1.2,3.8-1.8,6.6-1.8,8.5c0,0,0,0.6-0.1,1.6
			c-0.1,0.9-0.1,1.6,0,2.2c0.2,0.8,0.4,1.5,0.7,2.1c0.2,0.1,0.4,0.1,0.6,0.1c1.7,0,4-2.5,6.9-7.5c3-5,4.9-7.5,5.9-7.5
			c1.2,0,1.9,0.9,1.9,2.8c0,1.1-0.3,4.3-0.3,5.6c0,3,1.2,4.5,3.7,4.5c0.2,0,0.9-0.4,2.1-1.1c1.4-0.7,2.4-1.2,2.8-1.5
			c0.9,0.3,1.4,1,1.4,2C709.3,693.5,708.1,695,705.7,696.7z"/>
		<path class="st0" d="M717,642.8c0.3-3.2,0.7-5.4,4.2-5.5c1.1,0,2.2,1.8,2.2,2.4c0.1,0.7-1.1,9.2-3.7,25.3
			c-2.4,16.2-3.6,25.9-3.4,29.2c0.1,4.5,0.6,7.4,1.4,8.9c0.1,1.1-0.2,1.8-1,2c-0.1,0.2-0.4,0.3-1.1,0.5c-2.3,0.1-3.6-3.1-4.1-9.6
			c-0.1-1-0.1-2.1-0.1-3.3c0-5,0.7-12.3,2.1-22.3c0.9-5.3,2-13.2,3.3-24C716.9,645.3,716.9,644,717,642.8z"/>
		<path class="st0" d="M724.4,676c-0.4-0.8-0.6-1.6-0.6-2.4c0-1.8,1.4-2.7,4.2-2.7c2,0,3.7-0.1,5.2-0.2c0.4-2.5,1.1-6.3,2.2-11.4
			c0.7-3.3,1.4-5.6,2-7c1.2-2.8,2.6-4.1,4.2-3.9c0.3,0.1,0.9,0.5,1.8,1.2c0.9,0.7,1.3,1.4,1.3,1.8c0-0.1-0.8,2.3-2.5,7
			c-1.7,4.9-2.8,9-3.2,12l3.5-0.2c2.4,0,4.1,0.1,4.8,0.3c0.4,0.3,0.7,0.6,0.7,1.1c0-0.2-0.3,0.5-0.7,1.9c-4.3,1.7-7.3,2.7-9,2.9
			c-0.4,1.1-0.6,3.3-0.6,6.4c0,3.5,0.3,6.4,0.9,8.9c0.7,3,1.9,4.5,3.2,4.5c1,0,2.1-0.7,3.5-1.9c1.4-1.2,2.1-1.9,2.4-1.9
			c0.4,0,0.9-0.2,1.1-0.2c0.4,0,0.9,0.4,1.3,1.2v1.2c-0.5,1.5-1.9,3-4,4.5c-2.2,1.5-4,2.3-5.5,2.3c-5.7,0-8.5-5.8-8.5-17.2
			c0-2.3,0.1-4.7,0.3-7.2c-0.2,0-1.2,0.1-2.8,0.3c-1.5,0.2-2.5,0.2-2.8,0.2C725.7,677.6,724.9,677.1,724.4,676z"/>
		<path class="st0" d="M762.6,704.6c-1.4,0-3.3-2.3-5.5-6.7c-1.1-5-1.6-9.3-1.5-13.3c0.3-6.5,0.3-9.9,0-10.1l0.7-2.2
			c0.4-1,1.3-1.5,2.6-1.5c1.9,0,2.8,1.3,2.8,4c0,0.7-0.1,1.6-0.2,2.7c-0.2,1.1-0.2,1.6-0.2,1.7v8.3c0,5.3,1.1,10.6,3.5,15.8
			C764.4,704.1,763.7,704.6,762.6,704.6z M765.9,660.9c-1.8,1.2-3.2,1.8-4.3,1.8c-1.1,0-2-0.5-2.5-1.4c-0.5-0.7-0.7-1.5-0.7-2.3
			c0-1.2,0.5-2.2,1.5-2.8c0.6-0.4,1.6-0.6,3-0.6c1,0,1.9,0.2,2.8,0.5c1.1,0.5,1.7,1.1,1.7,1.9C767.2,659.3,766.7,660.3,765.9,660.9z
			"/>
		<path class="st0" d="M796.1,690.5c2.4-1.5,4.1-2.7,5.4-3.3c0.5,0.6,0.7,1,0.7,1.4c0,1.5-2,3.7-5.9,6.9c-3.6,2.9-5.9,4.4-6.7,4.4
			c-1.5,0-2.6-2-3-6c-0.2-2.9-0.4-5.9-0.6-8.8c-1.1,1.3-2.4,3-4.3,5.2c-1.5,1.7-3.2,4.5-5,8.2c-1.4,2.8-2.5,4.1-3.6,4.1
			c-0.8,0-1.5-0.6-2-1.6c-0.4-0.8-0.6-1.5-0.6-2c0-2.3,0.6-7.4,1.9-15.4c1.5-9.7,3-14.6,4.5-14.6c1.9,0,3.4,1.5,3.4,2.8
			c0,1.1-0.9,5.5-2.7,13.4l-0.3,2.9c0.5-1.1,2-3.2,4.3-6.1c2.9-3.7,5.1-5.4,6.6-5.1c2.2,0.1,3.4,1.7,3.7,4.7c0.2,3.7,0.4,7.3,0.6,11
			C793,692.4,794.2,691.7,796.1,690.5z"/>
		<path class="st0" d="M818.4,696.2c-2.7,1.4-4.7,2-6,2h-1.6c-2.8,0-5-1.1-6.6-3.3c-1.2-1.8-1.8-3.8-1.8-6.1c0-4.5,1.6-8.7,4.8-12.7
			c3.5-4.5,7.6-6.7,12.4-6.7c2.2,0,3.7,0.9,4.8,2.7c0.2,0.6,1,2.6,2,6.2c0.3,0.6,1.7,1.7,1.9,3.3c0.1,0.5,0,1.3-0.2,2.4
			c-0.3,1.2-0.4,2.1-0.4,2.7c0,0.4,0.1,0.7,0.2,1.1c2.3,7.7,3.8,13.3,4.6,16.7c0.6,3,1.2,6,1.9,9c8,3.6,12,6,12,7.2
			c0,1.2-0.4,1.8-1.3,1.8c-0.3,0-1.7-0.6-4.1-1.7c-2.8-1.4-4.8-2.2-5.9-2.6c0.2,1.2,0.4,2.5,0.7,3.8c0.2,2.5,0.2,6.4,0.2,11.6
			c-0.2,7.1-2.5,13.1-6.9,17.8c-4.3,4.5-9.4,6.7-15.5,6.7c-7.5,0-14.4-2.1-20.8-6.3c-7.6-5.1-11.4-11.7-11.4-19.8
			c0-8.7,3.4-14.9,10.3-18.9c5.1-2.9,11.5-4.4,19.4-4.4c5.6,0,11.3,0.7,17.2,2.2c-0.1-1.9-1.6-8.2-4.8-18.7
			C822.8,693.5,821.1,694.8,818.4,696.2z M829.3,716.8c-5.7-2.3-11.5-3.3-17.5-2.9c-16.7,0.8-25.1,7.1-25.1,18.7
			c0,5.8,2.9,10.6,8.9,14.8c5.1,3.7,10.2,5.4,15.2,5.4c7.1,0,12.3-2,15.4-6c2.8-3.6,4.2-9,4.2-16.3
			C830.4,724.1,830,719.6,829.3,716.8z M820.1,675.3c-0.6-0.2-1.4-0.3-2.6-0.4c-2.4,0-4.7,1.9-6.9,5.6c-2.1,3.5-3,6-2.6,7.6
			c0.7,3.1,2.2,4.6,4.2,4.6c2.7,0,4.9-1.6,6.7-4.9c1.5-2.7,2.4-5.1,2.4-7.3C821.3,678.6,820.9,676.8,820.1,675.3z"/>
	</g>
	<path class="st0" d="M693.8,193.8c0,107-86.7,193.8-193.8,193.8s-193.8-86.7-193.8-193.8C306.2,86.8,393,0,500,0
		S693.8,86.8,693.8,193.8z"/>
	<g>
		<path class="st1" d="M525.7,312.2h-77.9c-28.9,0-52.3-23.5-52.3-52.3V127.6c0-28.9,23.5-52.3,52.3-52.3h77.9v44.8h-77.9
			c-4.1,0-7.5,3.4-7.5,7.5v132.3c0,4.1,3.3,7.5,7.5,7.5h77.9V312.2z"/>
		<path class="st1" d="M559.6,75.3L559.6,75.3L559.6,75.3C559.6,75.3,559.6,75.3,559.6,75.3l-0.1,91.4c-0.3,3.8-3.5,6.8-7.4,6.8
			h-39.5h-37.4v44.9h37.4h39.5c3.9,0,7.1,3,7.4,6.8v87c0,0,0,0,0.1,0v0l0,0c25.3-3.7,44.8-25.6,44.8-52v-1.6v-32.8V166v-38.7
			C604.5,100.9,584.9,79,559.6,75.3z"/>
	</g>
</g>
</svg>
