<svg id="Layer_1" data-name="Layer 1" xmlns="http://www.w3.org/2000/svg" viewBox="0 0 58.71 54.66"><defs><style>.cls-1{fill:#fff;}.cls-2{fill:none;}</style></defs><title>organizational</title><path class="cls-1" d="M51.85,38.39V32.67a8.27,8.27,0,0,0,6.86-8,8.43,8.43,0,0,0-8.64-8.23A8.8,8.8,0,0,0,45,18l-7.72-6.53a7.57,7.57,0,0,0,.66-3.2A8.37,8.37,0,0,0,29.36,0a8.47,8.47,0,0,0-8.64,8.23,7.56,7.56,0,0,0,.79,3.39l-7.65,6.53a8.71,8.71,0,0,0-5.21-1.7A8.38,8.38,0,0,0,0,24.63a8.34,8.34,0,0,0,7.39,8.1v5.53a8.23,8.23,0,0,0,1.25,16.4A8.19,8.19,0,0,0,11,38.51v-6a8.31,8.31,0,0,0,6.33-7.92,8.09,8.09,0,0,0-1.06-4l7.45-6.35a9.17,9.17,0,0,0,4,1.95l-.07,10.55a8.33,8.33,0,0,0-6.86,8,8.43,8.43,0,0,0,8.64,8.23A8.2,8.2,0,0,0,31.2,26.83l.07-10.55a8.65,8.65,0,0,0,4.09-2.07l7.39,6.28a8.05,8.05,0,0,0-1.19,4.15,8.33,8.33,0,0,0,6.86,8v5.72a8.33,8.33,0,0,0-6.86,8,8.58,8.58,0,0,0,17.15,0,8.33,8.33,0,0,0-6.86-8" transform="translate(0)"/><rect class="cls-2" width="58.71" height="54.66"/></svg>