<svg id="Layer_1" data-name="Layer 1" xmlns="http://www.w3.org/2000/svg" viewBox="0 0 71.31 71.3"><defs><style>.cls-1{fill:#fff;}.cls-2{fill:none;}</style></defs><title>process</title><path class="cls-1" d="M48.29,10.92,45.56,8.19a29.26,29.26,0,0,1,19.24,26h6.5L60.38,45.11,49.46,34.18h6.28a20.23,20.23,0,0,0-13.21-17.5l5.76-5.76Z"/><path class="cls-1" d="M54.62,42.53a20.23,20.23,0,0,1-17.5,13.2V49.45L26.2,60.38,37.12,71.3V64.79a29.25,29.25,0,0,0,26-19.24l-2.73,2.73-5.76-5.76Z"/><path class="cls-1" d="M28.77,54.62a20.23,20.23,0,0,1-13.21-17.5h6.28L10.92,26.19,0,37.12H6.5a29.27,29.27,0,0,0,19.24,26L23,60.38l5.76-5.76Z"/><path class="cls-1" d="M16.69,28.77a20.23,20.23,0,0,1,17.5-13.21v6.28L45.11,10.92,34.19,0V6.5a29.27,29.27,0,0,0-26,19.24L10.92,23l5.76,5.76Z"/><rect class="cls-2" width="71.31" height="71.3"/></svg>