<svg id="Layer_1" data-name="Layer 1" xmlns="http://www.w3.org/2000/svg" xmlns:xlink="http://www.w3.org/1999/xlink" viewBox="0 0 52.54 44.21"><defs><style>.cls-1{fill:none;}.cls-2{fill:#fff;}.cls-3{clip-path:url(#clip-path);}</style><clipPath id="clip-path" transform="translate(0)"><rect class="cls-1" width="52.54" height="44.21"/></clipPath></defs><title>program</title><polygon class="cls-2" points="19.77 2.21 19.77 3.79 16.67 3.79 16.67 2.21 14.34 2.21 14.34 3.79 11.24 3.79 11.24 2.21 8.9 2.21 8.9 3.79 5.81 3.79 5.81 2.21 3.47 2.21 3.47 3.79 0 3.79 0 26.84 7.39 26.84 7.39 25.01 1.71 25.01 1.71 8.78 23.87 8.78 23.87 25.01 12.25 25.01 12.25 26.84 25.64 26.84 25.64 3.79 22.17 3.79 22.17 2.21 19.77 2.21"/><rect class="cls-2" x="8.59" y="10.1" width="2.97" height="2.97"/><rect class="cls-2" x="14.02" y="10.1" width="2.97" height="2.97"/><rect class="cls-2" x="19.39" y="10.1" width="2.97" height="2.97"/><rect class="cls-2" x="3.22" y="10.1" width="2.97" height="2.97"/><rect class="cls-2" x="14.02" y="15.35" width="2.97" height="2.97"/><polygon class="cls-2" points="10.93 17.87 13.2 15.6 12.13 14.53 9.91 16.8 8.21 15.09 7.14 16.17 8.84 17.87 9.91 18.95 10.93 17.87"/><rect class="cls-2" x="3.22" y="15.35" width="2.97" height="2.97"/><rect class="cls-2" x="19.39" y="15.35" width="2.97" height="2.97"/><rect class="cls-2" x="3.22" y="20.59" width="2.97" height="2.97"/><rect class="cls-2" x="14.02" y="20.59" width="2.97" height="2.97"/><rect class="cls-2" x="19.39" y="20.59" width="2.97" height="2.97"/><g class="cls-3"><path class="cls-2" d="M26.21,34.35a1.52,1.52,0,1,1,1.52-1.52,1.54,1.54,0,0,1-1.52,1.52m4.23-.95a4.17,4.17,0,1,0-8.34,0,13.51,13.51,0,0,0,.63,3.73A25,25,0,0,0,26.33,44a24.17,24.17,0,0,0,3.6-6.88,21.31,21.31,0,0,0,.51-3.73" transform="translate(0)"/><path class="cls-2" d="M44.46,38.65a4.91,4.91,0,0,1-.13,1l2,.57a4.7,4.7,0,0,0,.25-1.64V35.87h-2v2.78Z" transform="translate(0)"/></g><rect class="cls-2" x="44.46" y="31.45" width="2.02" height="3.03"/><rect class="cls-2" x="8.9" y="27.09" width="2.02" height="4.04"/><rect class="cls-2" x="8.9" y="20.4" width="2.02" height="5.18"/><rect class="cls-2" x="17.94" y="42.19" width="5.05" height="2.02"/><rect class="cls-2" x="29.55" y="42.19" width="4.55" height="2.02"/><g class="cls-3"><path class="cls-2" d="M41.11,42.18l.13,2a5.38,5.38,0,0,0,4.17-2.27l-1.64-1.2a3.44,3.44,0,0,1-2.65,1.45" transform="translate(0)"/></g><rect class="cls-2" x="8.9" y="32.65" width="2.02" height="4.04"/><rect class="cls-2" x="35.62" y="42.19" width="4.04" height="2.02"/><g class="cls-3"><path class="cls-2" d="M10.93,38.14h-2v.44a5.5,5.5,0,0,0,1.64,3.91L12,41a3.48,3.48,0,0,1-1-2.53v-.38Z" transform="translate(0)"/><path class="cls-2" d="M12.95,41.81l-.88,1.83a5.43,5.43,0,0,0,2.46.57h2v-2h-2a3.42,3.42,0,0,1-1.58-.38" transform="translate(0)"/><path class="cls-2" d="M50.46,4.36H29.74V2H50.39V4.36ZM27.79,0V6.38H29v20.9a1,1,0,0,0,2,0V6.38H49v20.9a1,1,0,1,0,2,0V6.38h1.52V0Z" transform="translate(0)"/><path class="cls-2" d="M45.47,14.15a2,2,0,0,0-2,2V29.43a.88.88,0,1,0,1.77,0V24h.51v5.43a.88.88,0,1,0,1.77,0V16.17a2,2,0,0,0-2-2" transform="translate(0)"/><path class="cls-2" d="M45.47,9.73a2,2,0,1,1-2,2,2,2,0,0,1,2-2" transform="translate(0)"/><path class="cls-2" d="M34.67,7.64a2,2,0,1,1-2,2,2,2,0,0,1,2-2" transform="translate(0)"/><path class="cls-2" d="M36.63,27.34V14.15a2,2,0,1,0-4,0V27.41a.88.88,0,0,0,1.77,0V22h.44v5.43a.86.86,0,0,0,.88.88,1,1,0,0,0,.95-.95" transform="translate(0)"/><path class="cls-2" d="M41.3,19.07a.57.57,0,0,0-.57-.57H38.21a.57.57,0,1,0,0,1.14h2v8a.57.57,0,1,0,1.14,0Z" transform="translate(0)"/></g></svg>