<svg id="Layer_1" data-name="Layer 1" xmlns="http://www.w3.org/2000/svg" viewBox="0 0 54.1 53.66"><defs><style>.cls-1{fill:#fff;}.cls-2{fill:none;}</style></defs><title>strategy</title><path class="cls-1" d="M3.09,53.66A32.39,32.39,0,0,0,35.22,21c0-.15,0-.31,0-.46l5.48-.12-6.84-8.68-6.45,9,5.48-.12c0,.14,0,.28,0,.43A30.06,30.06,0,0,1,3.07,51.33"/><path class="cls-1" d="M25.7,9.07a9.07,9.07,0,1,0-9.07,9.07A9.07,9.07,0,0,0,25.7,9.07m-4.6,0A4.47,4.47,0,1,1,16.63,4.6,4.47,4.47,0,0,1,21.1,9.07"/><rect class="cls-2" x="0.95" width="53.15" height="53.66"/><polygon class="cls-1" points="8.79 25.49 3.69 20.81 0 24.83 5.09 29.51 0.41 34.61 4.43 38.3 9.11 33.21 14.21 37.89 17.9 33.87 12.81 29.19 17.49 24.09 13.47 20.39 8.79 25.49"/><polygon class="cls-1" points="44.04 33.69 38.94 29 35.25 33.02 40.34 37.7 35.66 42.8 39.68 46.5 44.36 41.4 49.45 46.09 53.15 42.07 48.06 37.38 52.74 32.29 48.72 28.59 44.04 33.69"/></svg>